<mxfile host="app.diagrams.net" modified="2024-03-11T10:13:18.647Z" agent="Mozilla/5.0 (Windows NT 10.0; Win64; x64) AppleWebKit/537.36 (KHTML, like Gecko) Chrome/122.0.0.0 Safari/537.36" etag="GCGJ_2YiCZIRxMUtAeez" version="24.0.4" type="device">
  <diagram name="Page-1" id="M-ZbFMejyWum2lKfgo_a">
    <mxGraphModel dx="3783" dy="2787" grid="1" gridSize="10" guides="1" tooltips="1" connect="1" arrows="1" fold="1" page="1" pageScale="1" pageWidth="850" pageHeight="1100" math="0" shadow="0">
      <root>
        <mxCell id="0" />
        <mxCell id="1" parent="0" />
        <mxCell id="9SvtLTEh9Cpn79qWKh0k-3" value="Resident" style="rounded=0;whiteSpace=wrap;html=1;" vertex="1" parent="1">
          <mxGeometry x="-165" y="150" width="170" height="80" as="geometry" />
        </mxCell>
        <mxCell id="9SvtLTEh9Cpn79qWKh0k-4" value="" style="endArrow=none;html=1;rounded=0;exitX=0.059;exitY=-0.025;exitDx=0;exitDy=0;exitPerimeter=0;" edge="1" parent="1" source="9SvtLTEh9Cpn79qWKh0k-3" target="9SvtLTEh9Cpn79qWKh0k-5">
          <mxGeometry width="50" height="50" relative="1" as="geometry">
            <mxPoint x="-145" y="140" as="sourcePoint" />
            <mxPoint x="85" y="90" as="targetPoint" />
          </mxGeometry>
        </mxCell>
        <mxCell id="9SvtLTEh9Cpn79qWKh0k-5" value="Resident ID" style="ellipse;whiteSpace=wrap;html=1;" vertex="1" parent="1">
          <mxGeometry x="-325" y="20" width="120" height="80" as="geometry" />
        </mxCell>
        <mxCell id="9SvtLTEh9Cpn79qWKh0k-6" value="Resident Name" style="ellipse;whiteSpace=wrap;html=1;" vertex="1" parent="1">
          <mxGeometry x="-140" width="120" height="80" as="geometry" />
        </mxCell>
        <mxCell id="9SvtLTEh9Cpn79qWKh0k-7" value="" style="endArrow=none;html=1;rounded=0;entryX=0.5;entryY=1;entryDx=0;entryDy=0;exitX=0.5;exitY=0;exitDx=0;exitDy=0;" edge="1" parent="1" source="9SvtLTEh9Cpn79qWKh0k-3" target="9SvtLTEh9Cpn79qWKh0k-6">
          <mxGeometry width="50" height="50" relative="1" as="geometry">
            <mxPoint x="-115" y="140" as="sourcePoint" />
            <mxPoint x="70" y="127" as="targetPoint" />
          </mxGeometry>
        </mxCell>
        <mxCell id="9SvtLTEh9Cpn79qWKh0k-8" value="Contact Number" style="ellipse;whiteSpace=wrap;html=1;" vertex="1" parent="1">
          <mxGeometry x="15" y="10" width="120" height="80" as="geometry" />
        </mxCell>
        <mxCell id="9SvtLTEh9Cpn79qWKh0k-9" value="" style="endArrow=none;html=1;rounded=0;entryX=0.5;entryY=1;entryDx=0;entryDy=0;" edge="1" parent="1" target="9SvtLTEh9Cpn79qWKh0k-8">
          <mxGeometry width="50" height="50" relative="1" as="geometry">
            <mxPoint x="-5" y="150" as="sourcePoint" />
            <mxPoint x="245" y="10" as="targetPoint" />
          </mxGeometry>
        </mxCell>
        <mxCell id="9SvtLTEh9Cpn79qWKh0k-11" value="" style="endArrow=none;html=1;rounded=0;exitX=0.053;exitY=1;exitDx=0;exitDy=0;entryX=1;entryY=0;entryDx=0;entryDy=0;exitPerimeter=0;" edge="1" parent="1" source="9SvtLTEh9Cpn79qWKh0k-3" target="9SvtLTEh9Cpn79qWKh0k-15">
          <mxGeometry width="50" height="50" relative="1" as="geometry">
            <mxPoint x="-115" y="60" as="sourcePoint" />
            <mxPoint x="-235" y="190" as="targetPoint" />
          </mxGeometry>
        </mxCell>
        <mxCell id="9SvtLTEh9Cpn79qWKh0k-12" value="" style="endArrow=none;html=1;rounded=0;exitX=0.941;exitY=1.038;exitDx=0;exitDy=0;entryX=0;entryY=0;entryDx=0;entryDy=0;exitPerimeter=0;" edge="1" parent="1" source="9SvtLTEh9Cpn79qWKh0k-3" target="9SvtLTEh9Cpn79qWKh0k-13">
          <mxGeometry width="50" height="50" relative="1" as="geometry">
            <mxPoint x="-115" y="60" as="sourcePoint" />
            <mxPoint x="75" y="190" as="targetPoint" />
          </mxGeometry>
        </mxCell>
        <mxCell id="9SvtLTEh9Cpn79qWKh0k-13" value="Birthdate" style="ellipse;whiteSpace=wrap;html=1;" vertex="1" parent="1">
          <mxGeometry x="55" y="270" width="120" height="80" as="geometry" />
        </mxCell>
        <mxCell id="9SvtLTEh9Cpn79qWKh0k-15" value="Gender" style="ellipse;whiteSpace=wrap;html=1;" vertex="1" parent="1">
          <mxGeometry x="-335" y="270" width="120" height="80" as="geometry" />
        </mxCell>
        <mxCell id="9SvtLTEh9Cpn79qWKh0k-16" value="" style="endArrow=none;html=1;rounded=0;entryX=0.453;entryY=0.988;entryDx=0;entryDy=0;entryPerimeter=0;exitX=0.5;exitY=0;exitDx=0;exitDy=0;" edge="1" parent="1" source="9SvtLTEh9Cpn79qWKh0k-17" target="9SvtLTEh9Cpn79qWKh0k-3">
          <mxGeometry width="50" height="50" relative="1" as="geometry">
            <mxPoint x="-205" y="280" as="sourcePoint" />
            <mxPoint x="-65" y="110" as="targetPoint" />
          </mxGeometry>
        </mxCell>
        <mxCell id="9SvtLTEh9Cpn79qWKh0k-17" value="Purok" style="ellipse;whiteSpace=wrap;html=1;" vertex="1" parent="1">
          <mxGeometry x="-145" y="310" width="120" height="80" as="geometry" />
        </mxCell>
        <mxCell id="9SvtLTEh9Cpn79qWKh0k-20" value="Transactions" style="rounded=0;whiteSpace=wrap;html=1;" vertex="1" parent="1">
          <mxGeometry x="770" y="-290" width="170" height="80" as="geometry" />
        </mxCell>
        <mxCell id="9SvtLTEh9Cpn79qWKh0k-21" value="" style="endArrow=none;html=1;rounded=0;exitX=0.059;exitY=-0.025;exitDx=0;exitDy=0;exitPerimeter=0;" edge="1" parent="1" source="9SvtLTEh9Cpn79qWKh0k-20" target="9SvtLTEh9Cpn79qWKh0k-22">
          <mxGeometry width="50" height="50" relative="1" as="geometry">
            <mxPoint x="790" y="-300" as="sourcePoint" />
            <mxPoint x="1020" y="-350" as="targetPoint" />
          </mxGeometry>
        </mxCell>
        <mxCell id="9SvtLTEh9Cpn79qWKh0k-22" value="TransactionID" style="ellipse;whiteSpace=wrap;html=1;" vertex="1" parent="1">
          <mxGeometry x="640" y="-370" width="120" height="80" as="geometry" />
        </mxCell>
        <mxCell id="9SvtLTEh9Cpn79qWKh0k-23" value="" style="endArrow=none;html=1;rounded=0;entryX=0.5;entryY=1;entryDx=0;entryDy=0;exitX=0.5;exitY=0;exitDx=0;exitDy=0;" edge="1" parent="1" source="9SvtLTEh9Cpn79qWKh0k-32">
          <mxGeometry width="50" height="50" relative="1" as="geometry">
            <mxPoint x="820" y="-300" as="sourcePoint" />
            <mxPoint x="855" y="-360" as="targetPoint" />
          </mxGeometry>
        </mxCell>
        <mxCell id="9SvtLTEh9Cpn79qWKh0k-24" value="Type" style="ellipse;whiteSpace=wrap;html=1;" vertex="1" parent="1">
          <mxGeometry x="930" y="-390" width="120" height="80" as="geometry" />
        </mxCell>
        <mxCell id="9SvtLTEh9Cpn79qWKh0k-25" value="" style="endArrow=none;html=1;rounded=0;entryX=0.5;entryY=1;entryDx=0;entryDy=0;" edge="1" parent="1" target="9SvtLTEh9Cpn79qWKh0k-24">
          <mxGeometry width="50" height="50" relative="1" as="geometry">
            <mxPoint x="930" y="-290" as="sourcePoint" />
            <mxPoint x="1180" y="-430" as="targetPoint" />
          </mxGeometry>
        </mxCell>
        <mxCell id="9SvtLTEh9Cpn79qWKh0k-26" value="" style="endArrow=none;html=1;rounded=0;exitX=0.053;exitY=1;exitDx=0;exitDy=0;entryX=1;entryY=0;entryDx=0;entryDy=0;exitPerimeter=0;" edge="1" parent="1" source="9SvtLTEh9Cpn79qWKh0k-20" target="9SvtLTEh9Cpn79qWKh0k-29">
          <mxGeometry width="50" height="50" relative="1" as="geometry">
            <mxPoint x="820" y="-380" as="sourcePoint" />
            <mxPoint x="700" y="-250" as="targetPoint" />
          </mxGeometry>
        </mxCell>
        <mxCell id="9SvtLTEh9Cpn79qWKh0k-27" value="" style="endArrow=none;html=1;rounded=0;exitX=0.941;exitY=1.038;exitDx=0;exitDy=0;entryX=0;entryY=0;entryDx=0;entryDy=0;exitPerimeter=0;" edge="1" parent="1" source="9SvtLTEh9Cpn79qWKh0k-20" target="9SvtLTEh9Cpn79qWKh0k-28">
          <mxGeometry width="50" height="50" relative="1" as="geometry">
            <mxPoint x="820" y="-380" as="sourcePoint" />
            <mxPoint x="1010" y="-250" as="targetPoint" />
          </mxGeometry>
        </mxCell>
        <mxCell id="9SvtLTEh9Cpn79qWKh0k-28" value="ResidentsId" style="ellipse;whiteSpace=wrap;html=1;" vertex="1" parent="1">
          <mxGeometry x="950" y="-200" width="120" height="80" as="geometry" />
        </mxCell>
        <mxCell id="9SvtLTEh9Cpn79qWKh0k-29" value="Amount" style="ellipse;whiteSpace=wrap;html=1;" vertex="1" parent="1">
          <mxGeometry x="670" y="-180" width="120" height="80" as="geometry" />
        </mxCell>
        <mxCell id="9SvtLTEh9Cpn79qWKh0k-30" value="" style="endArrow=none;html=1;rounded=0;entryX=0.453;entryY=0.988;entryDx=0;entryDy=0;entryPerimeter=0;exitX=0.5;exitY=0;exitDx=0;exitDy=0;" edge="1" parent="1" source="9SvtLTEh9Cpn79qWKh0k-31" target="9SvtLTEh9Cpn79qWKh0k-20">
          <mxGeometry width="50" height="50" relative="1" as="geometry">
            <mxPoint x="730" y="-160" as="sourcePoint" />
            <mxPoint x="870" y="-330" as="targetPoint" />
          </mxGeometry>
        </mxCell>
        <mxCell id="9SvtLTEh9Cpn79qWKh0k-31" value="Status" style="ellipse;whiteSpace=wrap;html=1;" vertex="1" parent="1">
          <mxGeometry x="795" y="-180" width="120" height="80" as="geometry" />
        </mxCell>
        <mxCell id="9SvtLTEh9Cpn79qWKh0k-33" value="Permit" style="rounded=0;whiteSpace=wrap;html=1;" vertex="1" parent="1">
          <mxGeometry x="760" y="760" width="170" height="80" as="geometry" />
        </mxCell>
        <mxCell id="9SvtLTEh9Cpn79qWKh0k-34" value="" style="endArrow=none;html=1;rounded=0;exitX=0.059;exitY=-0.025;exitDx=0;exitDy=0;exitPerimeter=0;" edge="1" parent="1" source="9SvtLTEh9Cpn79qWKh0k-33" target="9SvtLTEh9Cpn79qWKh0k-35">
          <mxGeometry width="50" height="50" relative="1" as="geometry">
            <mxPoint x="780" y="750" as="sourcePoint" />
            <mxPoint x="1010" y="700" as="targetPoint" />
          </mxGeometry>
        </mxCell>
        <mxCell id="9SvtLTEh9Cpn79qWKh0k-35" value="PermitID" style="ellipse;whiteSpace=wrap;html=1;" vertex="1" parent="1">
          <mxGeometry x="685" y="650" width="95" height="70" as="geometry" />
        </mxCell>
        <mxCell id="9SvtLTEh9Cpn79qWKh0k-36" value="" style="endArrow=none;html=1;rounded=0;entryX=0.5;entryY=1;entryDx=0;entryDy=0;exitX=0.5;exitY=0;exitDx=0;exitDy=0;" edge="1" parent="1" source="9SvtLTEh9Cpn79qWKh0k-45">
          <mxGeometry width="50" height="50" relative="1" as="geometry">
            <mxPoint x="810" y="750" as="sourcePoint" />
            <mxPoint x="845" y="690" as="targetPoint" />
          </mxGeometry>
        </mxCell>
        <mxCell id="9SvtLTEh9Cpn79qWKh0k-37" value="Expiry date" style="ellipse;whiteSpace=wrap;html=1;" vertex="1" parent="1">
          <mxGeometry x="930" y="660" width="120" height="80" as="geometry" />
        </mxCell>
        <mxCell id="9SvtLTEh9Cpn79qWKh0k-38" value="" style="endArrow=none;html=1;rounded=0;entryX=0.5;entryY=1;entryDx=0;entryDy=0;" edge="1" parent="1" target="9SvtLTEh9Cpn79qWKh0k-37">
          <mxGeometry width="50" height="50" relative="1" as="geometry">
            <mxPoint x="920" y="760" as="sourcePoint" />
            <mxPoint x="1170" y="620" as="targetPoint" />
          </mxGeometry>
        </mxCell>
        <mxCell id="9SvtLTEh9Cpn79qWKh0k-39" value="" style="endArrow=none;html=1;rounded=0;exitX=0.053;exitY=1;exitDx=0;exitDy=0;entryX=1;entryY=0;entryDx=0;entryDy=0;exitPerimeter=0;" edge="1" parent="1" source="9SvtLTEh9Cpn79qWKh0k-33" target="9SvtLTEh9Cpn79qWKh0k-42">
          <mxGeometry width="50" height="50" relative="1" as="geometry">
            <mxPoint x="810" y="670" as="sourcePoint" />
            <mxPoint x="690" y="800" as="targetPoint" />
          </mxGeometry>
        </mxCell>
        <mxCell id="9SvtLTEh9Cpn79qWKh0k-40" value="" style="endArrow=none;html=1;rounded=0;exitX=0.941;exitY=1.038;exitDx=0;exitDy=0;entryX=0;entryY=0;entryDx=0;entryDy=0;exitPerimeter=0;" edge="1" parent="1" source="9SvtLTEh9Cpn79qWKh0k-33" target="9SvtLTEh9Cpn79qWKh0k-41">
          <mxGeometry width="50" height="50" relative="1" as="geometry">
            <mxPoint x="810" y="670" as="sourcePoint" />
            <mxPoint x="1000" y="800" as="targetPoint" />
          </mxGeometry>
        </mxCell>
        <mxCell id="9SvtLTEh9Cpn79qWKh0k-41" value="Birthdate" style="ellipse;whiteSpace=wrap;html=1;" vertex="1" parent="1">
          <mxGeometry x="940" y="860" width="120" height="80" as="geometry" />
        </mxCell>
        <mxCell id="9SvtLTEh9Cpn79qWKh0k-42" value="Status" style="ellipse;whiteSpace=wrap;html=1;" vertex="1" parent="1">
          <mxGeometry x="640" y="860" width="120" height="80" as="geometry" />
        </mxCell>
        <mxCell id="9SvtLTEh9Cpn79qWKh0k-43" value="" style="endArrow=none;html=1;rounded=0;entryX=0.453;entryY=0.988;entryDx=0;entryDy=0;entryPerimeter=0;exitX=0.5;exitY=0;exitDx=0;exitDy=0;" edge="1" parent="1" source="9SvtLTEh9Cpn79qWKh0k-44" target="9SvtLTEh9Cpn79qWKh0k-33">
          <mxGeometry width="50" height="50" relative="1" as="geometry">
            <mxPoint x="720" y="890" as="sourcePoint" />
            <mxPoint x="860" y="720" as="targetPoint" />
          </mxGeometry>
        </mxCell>
        <mxCell id="9SvtLTEh9Cpn79qWKh0k-44" value="ResidentID" style="ellipse;whiteSpace=wrap;html=1;" vertex="1" parent="1">
          <mxGeometry x="780" y="890" width="120" height="80" as="geometry" />
        </mxCell>
        <mxCell id="9SvtLTEh9Cpn79qWKh0k-46" value="Cedula" style="rounded=0;whiteSpace=wrap;html=1;" vertex="1" parent="1">
          <mxGeometry x="765" y="410" width="170" height="80" as="geometry" />
        </mxCell>
        <mxCell id="9SvtLTEh9Cpn79qWKh0k-47" value="" style="endArrow=none;html=1;rounded=0;exitX=0.059;exitY=-0.025;exitDx=0;exitDy=0;exitPerimeter=0;" edge="1" parent="1" source="9SvtLTEh9Cpn79qWKh0k-46" target="9SvtLTEh9Cpn79qWKh0k-48">
          <mxGeometry width="50" height="50" relative="1" as="geometry">
            <mxPoint x="785" y="400" as="sourcePoint" />
            <mxPoint x="1015" y="350" as="targetPoint" />
          </mxGeometry>
        </mxCell>
        <mxCell id="9SvtLTEh9Cpn79qWKh0k-48" value="CedulaID" style="ellipse;whiteSpace=wrap;html=1;" vertex="1" parent="1">
          <mxGeometry x="670" y="290" width="120" height="80" as="geometry" />
        </mxCell>
        <mxCell id="9SvtLTEh9Cpn79qWKh0k-49" value="" style="endArrow=none;html=1;rounded=0;entryX=0.5;entryY=1;entryDx=0;entryDy=0;exitX=0.5;exitY=0;exitDx=0;exitDy=0;" edge="1" parent="1" source="9SvtLTEh9Cpn79qWKh0k-46">
          <mxGeometry width="50" height="50" relative="1" as="geometry">
            <mxPoint x="815" y="400" as="sourcePoint" />
            <mxPoint x="850" y="340" as="targetPoint" />
          </mxGeometry>
        </mxCell>
        <mxCell id="9SvtLTEh9Cpn79qWKh0k-50" value="Date Issued" style="ellipse;whiteSpace=wrap;html=1;" vertex="1" parent="1">
          <mxGeometry x="945" y="330" width="120" height="80" as="geometry" />
        </mxCell>
        <mxCell id="9SvtLTEh9Cpn79qWKh0k-51" value="" style="endArrow=none;html=1;rounded=0;entryX=0.5;entryY=1;entryDx=0;entryDy=0;" edge="1" parent="1" target="9SvtLTEh9Cpn79qWKh0k-50">
          <mxGeometry width="50" height="50" relative="1" as="geometry">
            <mxPoint x="925" y="410" as="sourcePoint" />
            <mxPoint x="1175" y="270" as="targetPoint" />
          </mxGeometry>
        </mxCell>
        <mxCell id="9SvtLTEh9Cpn79qWKh0k-52" value="" style="endArrow=none;html=1;rounded=0;exitX=0.053;exitY=1;exitDx=0;exitDy=0;entryX=1;entryY=0;entryDx=0;entryDy=0;exitPerimeter=0;" edge="1" parent="1" source="9SvtLTEh9Cpn79qWKh0k-46" target="9SvtLTEh9Cpn79qWKh0k-55">
          <mxGeometry width="50" height="50" relative="1" as="geometry">
            <mxPoint x="815" y="320" as="sourcePoint" />
            <mxPoint x="695" y="450" as="targetPoint" />
          </mxGeometry>
        </mxCell>
        <mxCell id="9SvtLTEh9Cpn79qWKh0k-55" value="Validity Date" style="ellipse;whiteSpace=wrap;html=1;" vertex="1" parent="1">
          <mxGeometry x="645" y="510" width="120" height="80" as="geometry" />
        </mxCell>
        <mxCell id="9SvtLTEh9Cpn79qWKh0k-56" value="" style="endArrow=none;html=1;rounded=0;entryX=0.925;entryY=1.016;entryDx=0;entryDy=0;entryPerimeter=0;exitX=0;exitY=0;exitDx=0;exitDy=0;" edge="1" parent="1" source="9SvtLTEh9Cpn79qWKh0k-57" target="9SvtLTEh9Cpn79qWKh0k-46">
          <mxGeometry width="50" height="50" relative="1" as="geometry">
            <mxPoint x="725" y="540" as="sourcePoint" />
            <mxPoint x="865" y="370" as="targetPoint" />
          </mxGeometry>
        </mxCell>
        <mxCell id="9SvtLTEh9Cpn79qWKh0k-57" value="Amount Paid" style="ellipse;whiteSpace=wrap;html=1;" vertex="1" parent="1">
          <mxGeometry x="945" y="510" width="120" height="80" as="geometry" />
        </mxCell>
        <mxCell id="9SvtLTEh9Cpn79qWKh0k-58" value="ResidentID" style="ellipse;whiteSpace=wrap;html=1;" vertex="1" parent="1">
          <mxGeometry x="805" y="300" width="120" height="80" as="geometry" />
        </mxCell>
        <mxCell id="9SvtLTEh9Cpn79qWKh0k-59" value="" style="endArrow=none;html=1;rounded=0;exitX=1;exitY=0.5;exitDx=0;exitDy=0;entryX=0;entryY=0.5;entryDx=0;entryDy=0;" edge="1" parent="1" source="9SvtLTEh9Cpn79qWKh0k-3" target="9SvtLTEh9Cpn79qWKh0k-60">
          <mxGeometry width="50" height="50" relative="1" as="geometry">
            <mxPoint x="340" y="390" as="sourcePoint" />
            <mxPoint x="170" y="190" as="targetPoint" />
          </mxGeometry>
        </mxCell>
        <mxCell id="9SvtLTEh9Cpn79qWKh0k-60" value="Request" style="rhombus;whiteSpace=wrap;html=1;" vertex="1" parent="1">
          <mxGeometry x="240" y="110" width="160" height="160" as="geometry" />
        </mxCell>
        <mxCell id="9SvtLTEh9Cpn79qWKh0k-61" value="" style="endArrow=none;html=1;rounded=0;exitX=0.635;exitY=0.133;exitDx=0;exitDy=0;entryX=0;entryY=0.5;entryDx=0;entryDy=0;exitPerimeter=0;" edge="1" parent="1" source="9SvtLTEh9Cpn79qWKh0k-60" target="9SvtLTEh9Cpn79qWKh0k-20">
          <mxGeometry width="50" height="50" relative="1" as="geometry">
            <mxPoint x="340" y="390" as="sourcePoint" />
            <mxPoint x="390" y="340" as="targetPoint" />
          </mxGeometry>
        </mxCell>
        <mxCell id="9SvtLTEh9Cpn79qWKh0k-62" value="Permit" style="rounded=0;whiteSpace=wrap;html=1;" vertex="1" parent="1">
          <mxGeometry x="775" y="50" width="170" height="80" as="geometry" />
        </mxCell>
        <mxCell id="9SvtLTEh9Cpn79qWKh0k-63" value="" style="endArrow=none;html=1;rounded=0;exitX=0.059;exitY=-0.025;exitDx=0;exitDy=0;exitPerimeter=0;" edge="1" parent="1" source="9SvtLTEh9Cpn79qWKh0k-62" target="9SvtLTEh9Cpn79qWKh0k-64">
          <mxGeometry width="50" height="50" relative="1" as="geometry">
            <mxPoint x="795" y="40" as="sourcePoint" />
            <mxPoint x="1025" y="-10" as="targetPoint" />
          </mxGeometry>
        </mxCell>
        <mxCell id="9SvtLTEh9Cpn79qWKh0k-64" value="PermitID" style="ellipse;whiteSpace=wrap;html=1;" vertex="1" parent="1">
          <mxGeometry x="655" y="-40" width="120" height="80" as="geometry" />
        </mxCell>
        <mxCell id="9SvtLTEh9Cpn79qWKh0k-65" value="" style="endArrow=none;html=1;rounded=0;entryX=0.5;entryY=1;entryDx=0;entryDy=0;exitX=0.5;exitY=0;exitDx=0;exitDy=0;" edge="1" parent="1" source="9SvtLTEh9Cpn79qWKh0k-62">
          <mxGeometry width="50" height="50" relative="1" as="geometry">
            <mxPoint x="825" y="40" as="sourcePoint" />
            <mxPoint x="860" y="-20" as="targetPoint" />
          </mxGeometry>
        </mxCell>
        <mxCell id="9SvtLTEh9Cpn79qWKh0k-66" value="Expiry date" style="ellipse;whiteSpace=wrap;html=1;" vertex="1" parent="1">
          <mxGeometry x="955" y="-40" width="120" height="80" as="geometry" />
        </mxCell>
        <mxCell id="9SvtLTEh9Cpn79qWKh0k-67" value="" style="endArrow=none;html=1;rounded=0;entryX=0.5;entryY=1;entryDx=0;entryDy=0;" edge="1" parent="1" target="9SvtLTEh9Cpn79qWKh0k-66">
          <mxGeometry width="50" height="50" relative="1" as="geometry">
            <mxPoint x="935" y="50" as="sourcePoint" />
            <mxPoint x="1185" y="-90" as="targetPoint" />
          </mxGeometry>
        </mxCell>
        <mxCell id="9SvtLTEh9Cpn79qWKh0k-68" value="" style="endArrow=none;html=1;rounded=0;exitX=0.053;exitY=1;exitDx=0;exitDy=0;entryX=1;entryY=0;entryDx=0;entryDy=0;exitPerimeter=0;" edge="1" parent="1" source="9SvtLTEh9Cpn79qWKh0k-62" target="9SvtLTEh9Cpn79qWKh0k-71">
          <mxGeometry width="50" height="50" relative="1" as="geometry">
            <mxPoint x="825" y="-40" as="sourcePoint" />
            <mxPoint x="705" y="90" as="targetPoint" />
          </mxGeometry>
        </mxCell>
        <mxCell id="9SvtLTEh9Cpn79qWKh0k-69" value="" style="endArrow=none;html=1;rounded=0;exitX=0.941;exitY=1.038;exitDx=0;exitDy=0;entryX=0;entryY=0;entryDx=0;entryDy=0;exitPerimeter=0;" edge="1" parent="1" source="9SvtLTEh9Cpn79qWKh0k-62" target="9SvtLTEh9Cpn79qWKh0k-70">
          <mxGeometry width="50" height="50" relative="1" as="geometry">
            <mxPoint x="825" y="-40" as="sourcePoint" />
            <mxPoint x="1015" y="90" as="targetPoint" />
          </mxGeometry>
        </mxCell>
        <mxCell id="9SvtLTEh9Cpn79qWKh0k-70" value="Birthdate" style="ellipse;whiteSpace=wrap;html=1;" vertex="1" parent="1">
          <mxGeometry x="965" y="140" width="120" height="80" as="geometry" />
        </mxCell>
        <mxCell id="9SvtLTEh9Cpn79qWKh0k-71" value="Status" style="ellipse;whiteSpace=wrap;html=1;" vertex="1" parent="1">
          <mxGeometry x="625" y="140" width="120" height="80" as="geometry" />
        </mxCell>
        <mxCell id="9SvtLTEh9Cpn79qWKh0k-72" value="" style="endArrow=none;html=1;rounded=0;entryX=0.453;entryY=0.988;entryDx=0;entryDy=0;entryPerimeter=0;exitX=0.5;exitY=0;exitDx=0;exitDy=0;" edge="1" parent="1" source="9SvtLTEh9Cpn79qWKh0k-73" target="9SvtLTEh9Cpn79qWKh0k-62">
          <mxGeometry width="50" height="50" relative="1" as="geometry">
            <mxPoint x="735" y="180" as="sourcePoint" />
            <mxPoint x="875" y="10" as="targetPoint" />
          </mxGeometry>
        </mxCell>
        <mxCell id="9SvtLTEh9Cpn79qWKh0k-73" value="ResidentID" style="ellipse;whiteSpace=wrap;html=1;" vertex="1" parent="1">
          <mxGeometry x="790" y="170" width="120" height="80" as="geometry" />
        </mxCell>
        <mxCell id="9SvtLTEh9Cpn79qWKh0k-74" value="Permit type" style="ellipse;whiteSpace=wrap;html=1;" vertex="1" parent="1">
          <mxGeometry x="805" y="-50" width="120" height="80" as="geometry" />
        </mxCell>
        <mxCell id="9SvtLTEh9Cpn79qWKh0k-75" value="" style="endArrow=none;html=1;rounded=0;exitX=1;exitY=0;exitDx=0;exitDy=0;entryX=0;entryY=0.5;entryDx=0;entryDy=0;" edge="1" parent="1" source="9SvtLTEh9Cpn79qWKh0k-60" target="9SvtLTEh9Cpn79qWKh0k-62">
          <mxGeometry width="50" height="50" relative="1" as="geometry">
            <mxPoint x="860" y="140" as="sourcePoint" />
            <mxPoint x="910" y="90" as="targetPoint" />
          </mxGeometry>
        </mxCell>
        <mxCell id="9SvtLTEh9Cpn79qWKh0k-77" value="" style="endArrow=none;html=1;rounded=0;entryX=0.662;entryY=0.865;entryDx=0;entryDy=0;entryPerimeter=0;exitX=0;exitY=0.5;exitDx=0;exitDy=0;" edge="1" parent="1" source="9SvtLTEh9Cpn79qWKh0k-33" target="9SvtLTEh9Cpn79qWKh0k-60">
          <mxGeometry width="50" height="50" relative="1" as="geometry">
            <mxPoint x="570" y="970" as="sourcePoint" />
            <mxPoint x="490" y="420" as="targetPoint" />
          </mxGeometry>
        </mxCell>
        <mxCell id="9SvtLTEh9Cpn79qWKh0k-78" value="" style="endArrow=none;html=1;rounded=0;entryX=0.5;entryY=1;entryDx=0;entryDy=0;exitX=0.5;exitY=0;exitDx=0;exitDy=0;" edge="1" parent="1" source="9SvtLTEh9Cpn79qWKh0k-33" target="9SvtLTEh9Cpn79qWKh0k-45">
          <mxGeometry width="50" height="50" relative="1" as="geometry">
            <mxPoint x="845" y="760" as="sourcePoint" />
            <mxPoint x="845" y="690" as="targetPoint" />
          </mxGeometry>
        </mxCell>
        <mxCell id="9SvtLTEh9Cpn79qWKh0k-45" value="Permit type" style="ellipse;whiteSpace=wrap;html=1;" vertex="1" parent="1">
          <mxGeometry x="790" y="650" width="120" height="80" as="geometry" />
        </mxCell>
        <mxCell id="9SvtLTEh9Cpn79qWKh0k-79" value="" style="endArrow=none;html=1;rounded=0;entryX=0.5;entryY=1;entryDx=0;entryDy=0;exitX=0.5;exitY=0;exitDx=0;exitDy=0;" edge="1" parent="1" source="9SvtLTEh9Cpn79qWKh0k-20" target="9SvtLTEh9Cpn79qWKh0k-32">
          <mxGeometry width="50" height="50" relative="1" as="geometry">
            <mxPoint x="855" y="-290" as="sourcePoint" />
            <mxPoint x="855" y="-360" as="targetPoint" />
          </mxGeometry>
        </mxCell>
        <mxCell id="9SvtLTEh9Cpn79qWKh0k-32" value="Date" style="ellipse;whiteSpace=wrap;html=1;" vertex="1" parent="1">
          <mxGeometry x="795" y="-390" width="120" height="80" as="geometry" />
        </mxCell>
        <mxCell id="9SvtLTEh9Cpn79qWKh0k-81" value="" style="endArrow=none;html=1;rounded=0;exitX=0.849;exitY=0.642;exitDx=0;exitDy=0;exitPerimeter=0;entryX=0;entryY=0.5;entryDx=0;entryDy=0;" edge="1" parent="1" source="9SvtLTEh9Cpn79qWKh0k-60" target="9SvtLTEh9Cpn79qWKh0k-46">
          <mxGeometry width="50" height="50" relative="1" as="geometry">
            <mxPoint x="840" y="650" as="sourcePoint" />
            <mxPoint x="890" y="600" as="targetPoint" />
          </mxGeometry>
        </mxCell>
        <mxCell id="9SvtLTEh9Cpn79qWKh0k-88" value="User" style="rounded=0;whiteSpace=wrap;html=1;" vertex="1" parent="1">
          <mxGeometry x="1500" y="280" width="150" height="80" as="geometry" />
        </mxCell>
        <mxCell id="9SvtLTEh9Cpn79qWKh0k-89" value="type" style="ellipse;whiteSpace=wrap;html=1;" vertex="1" parent="1">
          <mxGeometry x="1360" y="160" width="120" height="80" as="geometry" />
        </mxCell>
        <mxCell id="9SvtLTEh9Cpn79qWKh0k-90" value="" style="endArrow=none;html=1;rounded=0;entryX=0.728;entryY=0.982;entryDx=0;entryDy=0;exitX=0;exitY=0;exitDx=0;exitDy=0;entryPerimeter=0;" edge="1" parent="1" source="9SvtLTEh9Cpn79qWKh0k-88" target="9SvtLTEh9Cpn79qWKh0k-89">
          <mxGeometry width="50" height="50" relative="1" as="geometry">
            <mxPoint x="1440" y="590" as="sourcePoint" />
            <mxPoint x="1490" y="540" as="targetPoint" />
          </mxGeometry>
        </mxCell>
        <mxCell id="9SvtLTEh9Cpn79qWKh0k-91" value="User Id" style="ellipse;whiteSpace=wrap;html=1;" vertex="1" parent="1">
          <mxGeometry x="1515" y="160" width="120" height="80" as="geometry" />
        </mxCell>
        <mxCell id="9SvtLTEh9Cpn79qWKh0k-93" value="" style="endArrow=none;html=1;rounded=0;entryX=0.5;entryY=1;entryDx=0;entryDy=0;exitX=0.5;exitY=0;exitDx=0;exitDy=0;" edge="1" parent="1" source="9SvtLTEh9Cpn79qWKh0k-88" target="9SvtLTEh9Cpn79qWKh0k-91">
          <mxGeometry width="50" height="50" relative="1" as="geometry">
            <mxPoint x="1440" y="360" as="sourcePoint" />
            <mxPoint x="1490" y="310" as="targetPoint" />
          </mxGeometry>
        </mxCell>
        <mxCell id="9SvtLTEh9Cpn79qWKh0k-95" value="Username" style="ellipse;whiteSpace=wrap;html=1;" vertex="1" parent="1">
          <mxGeometry x="1680" y="170" width="120" height="80" as="geometry" />
        </mxCell>
        <mxCell id="9SvtLTEh9Cpn79qWKh0k-96" value="" style="endArrow=none;html=1;rounded=0;entryX=0.5;entryY=1;entryDx=0;entryDy=0;exitX=1;exitY=0;exitDx=0;exitDy=0;" edge="1" parent="1" target="9SvtLTEh9Cpn79qWKh0k-95" source="9SvtLTEh9Cpn79qWKh0k-88">
          <mxGeometry width="50" height="50" relative="1" as="geometry">
            <mxPoint x="1740" y="290" as="sourcePoint" />
            <mxPoint x="1655" y="320" as="targetPoint" />
          </mxGeometry>
        </mxCell>
        <mxCell id="9SvtLTEh9Cpn79qWKh0k-97" value="Password" style="ellipse;whiteSpace=wrap;html=1;" vertex="1" parent="1">
          <mxGeometry x="1360" y="370" width="120" height="80" as="geometry" />
        </mxCell>
        <mxCell id="9SvtLTEh9Cpn79qWKh0k-98" value="" style="endArrow=none;html=1;rounded=0;entryX=1;entryY=0;entryDx=0;entryDy=0;exitX=0;exitY=1;exitDx=0;exitDy=0;" edge="1" parent="1" target="9SvtLTEh9Cpn79qWKh0k-97" source="9SvtLTEh9Cpn79qWKh0k-88">
          <mxGeometry width="50" height="50" relative="1" as="geometry">
            <mxPoint x="1390" y="510" as="sourcePoint" />
            <mxPoint x="1305" y="540" as="targetPoint" />
          </mxGeometry>
        </mxCell>
        <mxCell id="9SvtLTEh9Cpn79qWKh0k-100" value="Complete Name" style="ellipse;whiteSpace=wrap;html=1;" vertex="1" parent="1">
          <mxGeometry x="1670" y="370" width="120" height="80" as="geometry" />
        </mxCell>
        <mxCell id="9SvtLTEh9Cpn79qWKh0k-101" value="" style="endArrow=none;html=1;rounded=0;entryX=0;entryY=0;entryDx=0;entryDy=0;exitX=1;exitY=1;exitDx=0;exitDy=0;" edge="1" parent="1" target="9SvtLTEh9Cpn79qWKh0k-100" source="9SvtLTEh9Cpn79qWKh0k-88">
          <mxGeometry width="50" height="50" relative="1" as="geometry">
            <mxPoint x="1740" y="510" as="sourcePoint" />
            <mxPoint x="1655" y="540" as="targetPoint" />
          </mxGeometry>
        </mxCell>
        <mxCell id="9SvtLTEh9Cpn79qWKh0k-102" value="" style="endArrow=none;html=1;rounded=0;exitX=1;exitY=0.5;exitDx=0;exitDy=0;entryX=0;entryY=0.75;entryDx=0;entryDy=0;" edge="1" parent="1" source="9SvtLTEh9Cpn79qWKh0k-106" target="9SvtLTEh9Cpn79qWKh0k-88">
          <mxGeometry width="50" height="50" relative="1" as="geometry">
            <mxPoint x="1370" y="680" as="sourcePoint" />
            <mxPoint x="1380" y="610" as="targetPoint" />
            <Array as="points">
              <mxPoint x="1320" y="340" />
            </Array>
          </mxGeometry>
        </mxCell>
        <mxCell id="9SvtLTEh9Cpn79qWKh0k-107" value="" style="endArrow=none;html=1;rounded=0;exitX=1;exitY=0.5;exitDx=0;exitDy=0;" edge="1" parent="1" source="9SvtLTEh9Cpn79qWKh0k-33" target="9SvtLTEh9Cpn79qWKh0k-106">
          <mxGeometry width="50" height="50" relative="1" as="geometry">
            <mxPoint x="930" y="800" as="sourcePoint" />
            <mxPoint x="1380" y="610" as="targetPoint" />
            <Array as="points">
              <mxPoint x="1180" y="790" />
            </Array>
          </mxGeometry>
        </mxCell>
        <mxCell id="9SvtLTEh9Cpn79qWKh0k-106" value="Process" style="rhombus;whiteSpace=wrap;html=1;" vertex="1" parent="1">
          <mxGeometry x="1140" y="480" width="80" height="80" as="geometry" />
        </mxCell>
        <mxCell id="9SvtLTEh9Cpn79qWKh0k-108" value="" style="endArrow=none;html=1;rounded=0;exitX=1;exitY=0.5;exitDx=0;exitDy=0;entryX=0;entryY=0.5;entryDx=0;entryDy=0;" edge="1" parent="1" source="9SvtLTEh9Cpn79qWKh0k-46" target="9SvtLTEh9Cpn79qWKh0k-88">
          <mxGeometry width="50" height="50" relative="1" as="geometry">
            <mxPoint x="1000" y="380" as="sourcePoint" />
            <mxPoint x="1050" y="330" as="targetPoint" />
            <Array as="points">
              <mxPoint x="1070" y="450" />
              <mxPoint x="1070" y="330" />
            </Array>
          </mxGeometry>
        </mxCell>
        <mxCell id="9SvtLTEh9Cpn79qWKh0k-109" value="Process" style="rhombus;whiteSpace=wrap;html=1;" vertex="1" parent="1">
          <mxGeometry x="1160" y="290" width="80" height="80" as="geometry" />
        </mxCell>
        <mxCell id="9SvtLTEh9Cpn79qWKh0k-111" value="" style="endArrow=none;html=1;rounded=0;exitX=1;exitY=0.5;exitDx=0;exitDy=0;" edge="1" parent="1" source="9SvtLTEh9Cpn79qWKh0k-62" target="9SvtLTEh9Cpn79qWKh0k-112">
          <mxGeometry width="50" height="50" relative="1" as="geometry">
            <mxPoint x="1000" y="170" as="sourcePoint" />
            <mxPoint x="1300" y="230" as="targetPoint" />
          </mxGeometry>
        </mxCell>
        <mxCell id="9SvtLTEh9Cpn79qWKh0k-112" value="Process" style="rhombus;whiteSpace=wrap;html=1;" vertex="1" parent="1">
          <mxGeometry x="1170" y="160" width="80" height="80" as="geometry" />
        </mxCell>
        <mxCell id="9SvtLTEh9Cpn79qWKh0k-114" value="" style="endArrow=none;html=1;rounded=0;exitX=1;exitY=0.5;exitDx=0;exitDy=0;entryX=0;entryY=0.25;entryDx=0;entryDy=0;" edge="1" parent="1" source="9SvtLTEh9Cpn79qWKh0k-112" target="9SvtLTEh9Cpn79qWKh0k-88">
          <mxGeometry width="50" height="50" relative="1" as="geometry">
            <mxPoint x="1000" y="370" as="sourcePoint" />
            <mxPoint x="1050" y="320" as="targetPoint" />
          </mxGeometry>
        </mxCell>
        <mxCell id="9SvtLTEh9Cpn79qWKh0k-115" value="" style="endArrow=none;html=1;rounded=0;entryX=1;entryY=1;entryDx=0;entryDy=0;exitX=0;exitY=0;exitDx=0;exitDy=0;" edge="1" parent="1" source="9SvtLTEh9Cpn79qWKh0k-89" target="9SvtLTEh9Cpn79qWKh0k-24">
          <mxGeometry width="50" height="50" relative="1" as="geometry">
            <mxPoint x="1350" y="120" as="sourcePoint" />
            <mxPoint x="1050" y="-80" as="targetPoint" />
          </mxGeometry>
        </mxCell>
        <mxCell id="9SvtLTEh9Cpn79qWKh0k-116" value="Process" style="rhombus;whiteSpace=wrap;html=1;" vertex="1" parent="1">
          <mxGeometry x="1160" y="-130" width="80" height="80" as="geometry" />
        </mxCell>
        <mxCell id="9SvtLTEh9Cpn79qWKh0k-117" value="Official" style="rounded=0;whiteSpace=wrap;html=1;" vertex="1" parent="1">
          <mxGeometry x="2150" y="270" width="170" height="90" as="geometry" />
        </mxCell>
        <mxCell id="9SvtLTEh9Cpn79qWKh0k-118" value="ID" style="ellipse;whiteSpace=wrap;html=1;" vertex="1" parent="1">
          <mxGeometry x="2175" y="140" width="120" height="80" as="geometry" />
        </mxCell>
        <mxCell id="9SvtLTEh9Cpn79qWKh0k-119" value="" style="endArrow=none;html=1;rounded=0;entryX=0.5;entryY=1;entryDx=0;entryDy=0;exitX=0.5;exitY=0;exitDx=0;exitDy=0;" edge="1" parent="1" source="9SvtLTEh9Cpn79qWKh0k-117" target="9SvtLTEh9Cpn79qWKh0k-118">
          <mxGeometry width="50" height="50" relative="1" as="geometry">
            <mxPoint x="2150" y="310" as="sourcePoint" />
            <mxPoint x="2200" y="260" as="targetPoint" />
          </mxGeometry>
        </mxCell>
        <mxCell id="9SvtLTEh9Cpn79qWKh0k-120" value="Complete Name" style="ellipse;whiteSpace=wrap;html=1;" vertex="1" parent="1">
          <mxGeometry x="2370" y="150" width="120" height="80" as="geometry" />
        </mxCell>
        <mxCell id="9SvtLTEh9Cpn79qWKh0k-121" value="" style="endArrow=none;html=1;rounded=0;entryX=0;entryY=1;entryDx=0;entryDy=0;exitX=0.91;exitY=0.004;exitDx=0;exitDy=0;exitPerimeter=0;" edge="1" parent="1" target="9SvtLTEh9Cpn79qWKh0k-120" source="9SvtLTEh9Cpn79qWKh0k-117">
          <mxGeometry width="50" height="50" relative="1" as="geometry">
            <mxPoint x="2430" y="280" as="sourcePoint" />
            <mxPoint x="2395" y="270" as="targetPoint" />
          </mxGeometry>
        </mxCell>
        <mxCell id="9SvtLTEh9Cpn79qWKh0k-122" value="Position" style="ellipse;whiteSpace=wrap;html=1;" vertex="1" parent="1">
          <mxGeometry x="2005" y="150" width="120" height="80" as="geometry" />
        </mxCell>
        <mxCell id="9SvtLTEh9Cpn79qWKh0k-123" value="" style="endArrow=none;html=1;rounded=0;entryX=0.5;entryY=1;entryDx=0;entryDy=0;exitX=0;exitY=0.25;exitDx=0;exitDy=0;" edge="1" parent="1" target="9SvtLTEh9Cpn79qWKh0k-122" source="9SvtLTEh9Cpn79qWKh0k-117">
          <mxGeometry width="50" height="50" relative="1" as="geometry">
            <mxPoint x="2060" y="270" as="sourcePoint" />
            <mxPoint x="2025" y="260" as="targetPoint" />
          </mxGeometry>
        </mxCell>
        <mxCell id="9SvtLTEh9Cpn79qWKh0k-124" value="Contact" style="ellipse;whiteSpace=wrap;html=1;" vertex="1" parent="1">
          <mxGeometry x="1980" y="380" width="120" height="80" as="geometry" />
        </mxCell>
        <mxCell id="9SvtLTEh9Cpn79qWKh0k-125" value="" style="endArrow=none;html=1;rounded=0;entryX=1;entryY=0;entryDx=0;entryDy=0;exitX=0;exitY=1;exitDx=0;exitDy=0;" edge="1" parent="1" target="9SvtLTEh9Cpn79qWKh0k-124" source="9SvtLTEh9Cpn79qWKh0k-117">
          <mxGeometry width="50" height="50" relative="1" as="geometry">
            <mxPoint x="1970" y="540" as="sourcePoint" />
            <mxPoint x="1935" y="530" as="targetPoint" />
          </mxGeometry>
        </mxCell>
        <mxCell id="9SvtLTEh9Cpn79qWKh0k-126" value="status" style="ellipse;whiteSpace=wrap;html=1;" vertex="1" parent="1">
          <mxGeometry x="2175" y="410" width="120" height="80" as="geometry" />
        </mxCell>
        <mxCell id="9SvtLTEh9Cpn79qWKh0k-127" value="" style="endArrow=none;html=1;rounded=0;entryX=0.5;entryY=0;entryDx=0;entryDy=0;exitX=0.5;exitY=1;exitDx=0;exitDy=0;" edge="1" parent="1" target="9SvtLTEh9Cpn79qWKh0k-126" source="9SvtLTEh9Cpn79qWKh0k-117">
          <mxGeometry width="50" height="50" relative="1" as="geometry">
            <mxPoint x="2330" y="580" as="sourcePoint" />
            <mxPoint x="2295" y="570" as="targetPoint" />
          </mxGeometry>
        </mxCell>
        <mxCell id="9SvtLTEh9Cpn79qWKh0k-128" value="User Id" style="ellipse;whiteSpace=wrap;html=1;" vertex="1" parent="1">
          <mxGeometry x="2380" y="400" width="120" height="80" as="geometry" />
        </mxCell>
        <mxCell id="9SvtLTEh9Cpn79qWKh0k-129" value="" style="endArrow=none;html=1;rounded=0;entryX=1;entryY=1;entryDx=0;entryDy=0;exitX=0;exitY=0;exitDx=0;exitDy=0;" edge="1" parent="1" target="9SvtLTEh9Cpn79qWKh0k-117" source="9SvtLTEh9Cpn79qWKh0k-128">
          <mxGeometry width="50" height="50" relative="1" as="geometry">
            <mxPoint x="2430" y="520" as="sourcePoint" />
            <mxPoint x="2395" y="510" as="targetPoint" />
          </mxGeometry>
        </mxCell>
        <mxCell id="9SvtLTEh9Cpn79qWKh0k-130" value="" style="endArrow=none;html=1;rounded=0;entryX=1;entryY=0.5;entryDx=0;entryDy=0;" edge="1" parent="1" target="9SvtLTEh9Cpn79qWKh0k-88">
          <mxGeometry width="50" height="50" relative="1" as="geometry">
            <mxPoint x="1900" y="320" as="sourcePoint" />
            <mxPoint x="2190" y="270" as="targetPoint" />
          </mxGeometry>
        </mxCell>
        <mxCell id="9SvtLTEh9Cpn79qWKh0k-131" value="Encode" style="rhombus;whiteSpace=wrap;html=1;" vertex="1" parent="1">
          <mxGeometry x="1870" y="280" width="80" height="80" as="geometry" />
        </mxCell>
        <mxCell id="9SvtLTEh9Cpn79qWKh0k-132" value="" style="endArrow=none;html=1;rounded=0;exitX=1;exitY=0.5;exitDx=0;exitDy=0;entryX=0;entryY=0.5;entryDx=0;entryDy=0;" edge="1" parent="1" source="9SvtLTEh9Cpn79qWKh0k-131" target="9SvtLTEh9Cpn79qWKh0k-117">
          <mxGeometry width="50" height="50" relative="1" as="geometry">
            <mxPoint x="2140" y="320" as="sourcePoint" />
            <mxPoint x="2190" y="270" as="targetPoint" />
          </mxGeometry>
        </mxCell>
      </root>
    </mxGraphModel>
  </diagram>
</mxfile>
